<svg xmlns="http://www.w3.org/2000/svg" width="346.667" height="346.667" preserveAspectRatio="xMidYMid meet" version="1.0" viewBox="0 0 260 260"><metadata>Created by potrace 1.14, written by Peter Selinger 2001-2017</metadata><g fill="#000" stroke="none"><path d="M1169 2596 c-2 -2 -24 -6 -49 -9 -80 -10 -143 -25 -230 -55 -148 -51 -229 -93 -380 -199 -53 -37 -175 -158 -221 -218 -13 -16 -26 -32 -29 -35 -15 -13 -87 -131 -122 -199 -94 -185 -138 -389 -133 -611 2 -80 6 -158 10 -175 21 -99 28 -128 51 -200 103 -326 350 -609 664 -762 175 -86 334 -124 535 -128 192 -5 305 13 470 71 399 142 698 463 816 873 10 35 21 83 25 105 3 23 9 61 14 86 9 49 6 319 -4 360 -4 14 -9 40 -12 58 -3 18 -16 68 -28 110 -141 468 -518 811 -1001 908 -69 14 -366 29 -376 20z m336 -180 c295 -65 531 -213 706 -444 69 -91 152 -265 185 -387 24 -88 27 -119 28 -265 1 -193 -6 -248 -50 -378 -75 -224 -241 -445 -430 -573 -142 -95 -319 -167 -459 -185 -27 -3 -53 -8 -57 -10 -4 -3 -57 -5 -117 -5 -313 0 -594 115 -811 332 -543 545 -396 1462 291 1809 176 89 316 120 529 116 85 -2 169 -7 185 -10z" transform="translate(0.000000,260.000000) scale(0.100000,-0.100000)"/><path d="M817 1942 c-10 -10 -17 -30 -16 -43 0 -13 -2 -112 -5 -219 -5 -175 -4 -199 13 -235 21 -46 73 -95 101 -95 18 0 19 -7 15 -97 -22 -538 -22 -556 -5 -588 27 -51 127 -41 150 14 11 27 10 138 -6 533 l-5 136 30 7 c36 8 83 61 99 111 6 20 11 127 12 249 1 203 0 214 -19 224 -27 15 -37 14 -55 -5 -13 -13 -16 -42 -16 -158 0 -154 -7 -175 -50 -161 -23 7 -22 -3 -24 183 -1 149 -5 161 -48 162 -25 0 -31 -32 -33 -188 -2 -150 -9 -177 -43 -156 -15 10 -17 31 -17 168 -1 127 -3 159 -15 166 -23 15 -45 12 -63 -8z" transform="translate(0.000000,260.000000) scale(0.100000,-0.100000)"/><path d="M1515 1949 c-17 -4 -45 -23 -64 -41 -138 -135 -138 -458 0 -583 l39 -35 1 -289 c0 -250 3 -293 17 -322 21 -42 59 -57 100 -40 50 21 54 47 47 273 -4 111 -8 243 -9 291 l-2 88 29 16 c103 53 157 218 128 389 -33 188 -151 293 -286 253z" transform="translate(0.000000,260.000000) scale(0.100000,-0.100000)"/></g></svg>